<svg width="148" height="207" viewBox="0 0 148 207" fill="none" xmlns="http://www.w3.org/2000/svg">
<path d="M85.5005 117.158V150.027C85.9159 149.83 86.3029 149.578 86.6509 149.278C98.3089 134.908 113.774 127.531 131.723 124.693C134.134 124.311 136.532 123.842 138.939 123.432C143.469 122.668 146.418 124.656 147.343 129.26C148.243 134.079 148.103 139.036 146.932 143.798C143.739 157.98 134.932 168.066 123.224 175.899C114.42 181.905 104.489 186.063 94.0308 188.118C91.3752 188.622 88.6358 188.687 85.3988 189.005C85.4726 191.201 85.3823 193.4 85.129 195.584C84.5919 198.518 83.801 201.4 82.7652 204.198C82.4412 205.094 81.8195 205.852 81.0041 206.345C80.1886 206.838 79.2286 207.036 78.2845 206.907C77.2613 206.862 76.2862 206.46 75.528 205.772C74.7699 205.083 74.2764 204.151 74.1332 203.137C73.5358 200.343 73.2012 197.488 72.8802 194.644C72.7927 193.211 72.7838 191.775 72.8533 190.342C68.9037 189.787 65.3105 189.571 61.8592 188.749C39.534 183.434 22.5593 171.085 12.1669 150.335C10.9378 147.902 10.0291 145.32 9.46346 142.654C8.31893 137.079 10.908 132.409 16.4038 131.007C33.1416 126.736 49.476 127.707 64.8533 136.176C68.0684 137.947 70.7576 140.672 74.129 143.301C75.2357 134.845 75.3197 126.4 75.9693 117.834C70.9021 117.246 66.171 117.003 61.5643 116.112C41.4131 112.217 27.6719 100.863 22.524 80.6598C18.8122 66.0959 21.4769 52.0932 28.8181 39.0764C32.7496 32.0237 37.956 25.762 44.1726 20.6093C51.2626 14.7631 59.7568 12.2303 68.4307 10.0984C81.0786 6.98913 93.6073 8.02871 105.83 11.9766C115.564 15.0594 123.678 21.8756 128.394 30.9312C135.927 44.8808 139.141 59.7808 135.93 75.4505C131.674 96.2197 118.451 108.795 98.2955 114.382C94.1737 115.533 89.9189 116.215 85.5005 117.158Z" fill="#FC787D"/>
<path d="M76.5381 109.475V142.345C76.9535 142.147 77.3405 141.895 77.6885 141.595C89.3465 127.225 104.811 119.849 122.761 117.01C125.172 116.629 127.569 116.16 129.977 115.75C134.506 114.986 137.456 116.973 138.38 121.577C139.28 126.397 139.141 131.354 137.97 136.115C134.777 150.298 125.969 160.383 114.262 168.216C105.457 174.223 95.5264 178.38 85.0684 180.435C82.4128 180.94 79.6734 181.004 76.4364 181.323C76.5102 183.519 76.4199 185.718 76.1666 187.901C75.6295 190.835 74.8386 193.718 73.8028 196.515C73.4788 197.411 72.8571 198.169 72.0417 198.662C71.2262 199.156 70.2662 199.354 69.3221 199.224C68.2989 199.179 67.3238 198.777 66.5656 198.089C65.8075 197.4 65.314 196.468 65.1708 195.455C64.5733 192.661 64.2388 189.805 63.9178 186.961C63.8303 185.529 63.8214 184.093 63.8909 182.659C59.9413 182.104 56.3481 181.888 52.8968 181.066C30.5716 175.751 13.5969 163.403 3.20446 142.652C1.97539 140.219 1.06667 137.637 0.501061 134.972C-0.643477 129.396 1.94563 124.726 7.44143 123.324C24.1792 119.054 40.5136 120.024 55.8909 128.493C59.106 130.264 61.7952 132.989 65.1666 135.619C66.2733 127.162 66.3573 118.717 67.0069 110.151C61.9396 109.563 57.2086 109.32 52.6019 108.43C32.4507 104.535 18.7095 93.1808 13.5616 72.9771C9.84982 58.4133 12.5145 44.4106 19.8557 31.3938C23.7872 24.3411 28.9936 18.0794 35.2102 12.9267C42.3002 7.0805 50.7944 4.54769 59.4683 2.41576C72.1162 -0.693491 84.6449 0.346095 96.8676 4.29399C106.601 7.37679 114.715 14.1929 119.431 23.2486C126.965 37.1982 130.178 52.0982 126.968 67.7679C122.711 88.5371 109.489 101.113 89.3331 106.699C85.2113 107.851 80.9565 108.532 76.5381 109.475ZM63.3312 10.2141C51.1884 10.0368 45.3885 12.2006 37.2254 21.0544C27.5288 31.5678 21.8019 43.9234 21.6179 58.3654C21.4019 75.3225 29.5322 92.5673 50.9507 97.8144C64.6023 101.161 78.9507 100.251 92.0709 95.2093C106.304 89.9152 114.631 79.4443 116.961 64.3124C118.784 52.4729 115.92 41.4814 110.844 30.9687C106.306 21.5637 98.5423 15.7511 88.46 13.6898C80.1927 11.999 71.7153 11.3335 63.3312 10.2141ZM64.3229 171.492C64.3229 166.118 64.3641 160.699 64.2775 155.283C64.168 154.444 63.8154 153.656 63.2633 153.014C60.9339 149.921 58.4808 146.92 56.1657 143.816C52.6744 139.208 47.8338 135.802 42.317 134.073C33.4538 131.06 24.0356 130.036 14.7321 131.076C13.6254 131.264 12.5323 131.524 11.4599 131.857C18.7893 156.264 46.775 172.521 64.3229 171.492ZM128.027 126.021C127.157 125.914 126.28 125.873 125.404 125.9C116.815 127.055 108.485 129.075 100.882 133.433C92.5449 138.212 85.2087 144.084 80.3523 152.582C77.2266 157.796 75.8468 163.872 76.4136 169.925C77.6828 170.01 78.9565 170.003 80.2246 169.902C97.1776 167.091 111.425 159.398 121.946 145.695C126.331 140.112 128.498 133.104 128.027 126.021Z" fill="#111827"/>
<path d="M75.4115 84.1037C75.1661 86.1701 75.0225 88.1659 74.6755 90.1256C74.1435 93.1205 72.6217 94.6827 70.4149 94.734C68.2553 94.7844 66.5847 93.2794 65.862 90.3474C65.3519 88.2785 65.0881 86.1457 64.7166 84.0617C61.5233 82.9606 58.4141 81.9438 55.346 80.7959C54.2889 80.3467 53.2875 79.7763 52.362 79.096C50.4872 77.8355 49.6477 76.0431 50.4704 73.8859C51.3427 71.5994 53.4116 71.8607 55.2528 72.2405C58.3343 72.8758 61.3771 73.6968 65.1057 74.6027L65.8729 58.575C63.7427 57.9027 61.9612 57.3917 60.2166 56.7757C51.1931 53.5909 49.9805 46.2379 53.6393 39.1631C55.8755 34.8405 58.6973 32.5245 66.2166 28.6421C66.1444 26.9825 66.0485 25.1648 65.988 23.348C65.9258 21.5833 66.614 19.8631 68.3821 19.8623C69.1159 19.937 69.8257 20.1658 70.465 20.5336C71.1044 20.9014 71.6588 21.4 72.0923 21.9968C73.0847 23.4767 73.3318 25.4557 73.9007 27.2204C76.8881 28.4809 79.9435 29.601 82.82 31.0742C83.3429 31.39 83.7966 31.8078 84.1544 32.3028C84.5124 32.7979 84.7662 33.36 84.9023 33.9556C85.1956 35.6043 83.8788 36.5689 82.3192 36.8126C79.7981 37.2135 77.2586 37.4683 74.5696 37.8036C74.4923 38.4977 74.3813 39.0397 74.3797 39.5817C74.3654 43.7338 74.3721 47.8858 74.3721 52.0665C75.8267 52.5816 76.7334 52.9371 77.662 53.2237C79.3032 53.7321 80.9805 54.1337 82.604 54.6926C93.8822 58.5741 93.8141 66.8463 89.2578 74.4405C86.8864 78.39 83.2477 80.937 79.0629 82.7244C77.8914 83.2294 76.6771 83.6304 75.4115 84.1037ZM75.0368 59.9859V74.6144C78.9755 73.3732 81.8788 71.5346 83.5595 68.1312C84.978 65.2589 84.4721 63.4649 81.6569 62.1817C79.4923 61.3294 77.2822 60.5971 75.0368 59.9884V59.9859ZM66.02 39.4959C61.4065 41.3169 58.904 43.7958 59.3939 46.3715C60.036 49.7395 63.0074 49.8346 66.02 50.5976V39.4959Z" fill="#111827"/>
</svg>
